<?xml version="1.0" standalone="no"?>
<!DOCTYPE svg PUBLIC "-//W3C//DTD SVG 20010904//EN"
 "http://www.w3.org/TR/2001/REC-SVG-20010904/DTD/svg10.dtd">
<svg version="1.0" xmlns="http://www.w3.org/2000/svg"
 width="1080.000000pt" height="1080.000000pt" viewBox="0 0 1080.000000 1080.000000"
 preserveAspectRatio="xMidYMid meet">

<g transform="translate(0.000000,1080.000000) scale(0.100000,-0.100000)"
fill="#000000" stroke="none">
<path d="M10400 10245 c-41 -19 -2372 -1067 -5179 -2329 -3970 -1785 -5112
-2302 -5138 -2328 -134 -129 -92 -357 78 -422 24 -9 822 -250 1774 -535 l1730
-518 486 -1704 c295 -1032 498 -1725 514 -1757 63 -120 210 -165 339 -103 40
20 171 173 1021 1194 537 645 982 1176 989 1181 9 6 572 -214 1742 -682 1590
-636 1734 -692 1787 -692 99 0 174 45 223 132 l29 53 3 4160 c2 4570 7 4219
-58 4297 -77 93 -206 113 -340 53z m-110 -4485 c0 -2848 -3 -3570 -12 -3570
-19 0 -4448 1773 -4448 1780 0 4 849 1027 1886 2276 2504 3011 2565 3084 2570
3084 2 0 4 -1606 4 -3570z m-1365 3251 c-6 -4 -1172 -994 -2591 -2199 l-2582
-2191 -1376 412 c-756 227 -1376 414 -1376 417 0 6 7909 3568 7925 3569 6 1 6
-2 0 -8z m-622 -1259 c-82 -98 -812 -976 -1623 -1951 -811 -975 -1485 -1789
-1497 -1809 -67 -110 -38 -259 65 -335 18 -13 311 -136 651 -272 618 -248 620
-249 603 -270 -79 -99 -1497 -1795 -1501 -1795 -3 0 -196 667 -429 1482 -345
1207 -421 1484 -410 1494 28 26 4281 3634 4285 3634 2 0 -63 -80 -144 -178z"/>
</g>
</svg>
